# This file uses centimeters as units for non-parametric coordinates.

mtllib mdl_pin.mtl
v 0.055162 0.789733 -0.095543
v -0.055162 0.789733 -0.095543
v -0.110324 0.789733 -0.000000
v -0.055162 0.789733 0.095543
v 0.055162 0.789733 0.095543
v 0.110324 0.789733 0.000000
v 0.000000 0.000000 0.000000
vt 1.000000 0.986879
vt 1.000000 0.986879
vt 0.500000 0.008747
vt 0.500000 0.986879
vt 0.000000 0.986879
vt -0.000000 0.986879
vt 0.500000 0.986879
vn -0.495191 -0.138354 -0.857697
vn 0.495192 -0.138354 -0.857697
vn 0.000000 -1.000000 -0.000000
vn -0.990383 -0.138354 -0.000000
vn -0.495192 -0.138354 0.857697
vn 0.495191 -0.138354 0.857697
vn 0.990383 -0.138354 0.000000
vn 0.000000 1.000000 0.000000
vn 0.000000 1.000000 0.000000
vn 0.000000 1.000000 0.000000
vn 0.000000 1.000000 0.000000
vn 0.000000 1.000000 0.000000
vn 0.000000 1.000000 0.000000
s 1
usemtl initialShadingGroup
f 2/1/1 1/2/2 7/3/3
f 3/4/4 2/1/1 7/3/3
f 4/5/5 3/4/4 7/3/3
f 5/6/6 4/5/5 7/3/3
f 6/7/7 5/6/6 7/3/3
f 1/2/2 6/7/7 7/3/3
s off
f 2/1/8 3/4/9 4/5/10 5/6/11 6/7/12 1/2/13
